<svg xmlns="http://www.w3.org/2000/svg" xmlns:xlink="http://www.w3.org/1999/xlink" width="475" height="383" viewBox="0 0 475 383">
  <defs>
    <clipPath id="clip-path">
      <rect width="464" height="212" fill="none"/>
    </clipPath>
  </defs>
  <g id="Group_15" data-name="Group 15" transform="translate(-1030 -402)">
    <g id="Group_14" data-name="Group 14">
      <rect id="Rectangle_43" data-name="Rectangle 43" width="243" height="383" transform="translate(1146 402)" fill="#faeded"/>
      <path id="Path_27" data-name="Path 27" d="M0,0H243V475H0Z" transform="translate(1030 785) rotate(-90)" fill="#f7d9d9"/>
      <g id="Group_13" data-name="Group 13" transform="translate(6 24)">
        <rect id="Rectangle_44" data-name="Rectangle 44" width="13" height="49" transform="translate(1261 424)" fill="red"/>
        <rect id="Rectangle_45" data-name="Rectangle 45" width="13" height="49" transform="translate(1243 455) rotate(-90)" fill="red"/>
      </g>
      <g id="Repeat_Grid_1" data-name="Repeat Grid 1" transform="translate(1041 567)" clip-path="url(#clip-path)">
        <g transform="translate(-1030 -542)">
          <rect id="Rectangle_46" data-name="Rectangle 46" width="26" height="22" transform="translate(1030 542)" fill="#f5f5e7"/>
        </g>
        <g transform="translate(-991 -542)">
          <rect id="Rectangle_46-2" data-name="Rectangle 46" width="26" height="22" transform="translate(1030 542)" fill="#f5f5e7"/>
        </g>
        <g transform="translate(-952 -542)">
          <rect id="Rectangle_46-3" data-name="Rectangle 46" width="26" height="22" transform="translate(1030 542)" fill="#f5f5e7"/>
        </g>
        <g transform="translate(-913 -542)">
          <rect id="Rectangle_46-4" data-name="Rectangle 46" width="26" height="22" transform="translate(1030 542)" fill="#f5f5e7"/>
        </g>
        <g transform="translate(-874 -542)">
          <rect id="Rectangle_46-5" data-name="Rectangle 46" width="26" height="22" transform="translate(1030 542)" fill="#f5f5e7"/>
        </g>
        <g transform="translate(-835 -542)">
          <rect id="Rectangle_46-6" data-name="Rectangle 46" width="26" height="22" transform="translate(1030 542)" fill="#f5f5e7"/>
        </g>
        <g transform="translate(-796 -542)">
          <rect id="Rectangle_46-7" data-name="Rectangle 46" width="26" height="22" transform="translate(1030 542)" fill="#f5f5e7"/>
        </g>
        <g transform="translate(-757 -542)">
          <rect id="Rectangle_46-8" data-name="Rectangle 46" width="26" height="22" transform="translate(1030 542)" fill="#f5f5e7"/>
        </g>
        <g transform="translate(-718 -542)">
          <rect id="Rectangle_46-9" data-name="Rectangle 46" width="26" height="22" transform="translate(1030 542)" fill="#f5f5e7"/>
        </g>
        <g transform="translate(-679 -542)">
          <rect id="Rectangle_46-10" data-name="Rectangle 46" width="26" height="22" transform="translate(1030 542)" fill="#f5f5e7"/>
        </g>
        <g transform="translate(-640 -542)">
          <rect id="Rectangle_46-11" data-name="Rectangle 46" width="26" height="22" transform="translate(1030 542)" fill="#f5f5e7"/>
        </g>
        <g transform="translate(-601 -542)">
          <rect id="Rectangle_46-12" data-name="Rectangle 46" width="26" height="22" transform="translate(1030 542)" fill="#f5f5e7"/>
        </g>
        <g transform="translate(-1030 -499)">
          <rect id="Rectangle_46-13" data-name="Rectangle 46" width="26" height="22" transform="translate(1030 542)" fill="#f5f5e7"/>
        </g>
        <g transform="translate(-991 -499)">
          <rect id="Rectangle_46-14" data-name="Rectangle 46" width="26" height="22" transform="translate(1030 542)" fill="#f5f5e7"/>
        </g>
        <g transform="translate(-952 -499)">
          <rect id="Rectangle_46-15" data-name="Rectangle 46" width="26" height="22" transform="translate(1030 542)" fill="#f5f5e7"/>
        </g>
        <g transform="translate(-913 -499)">
          <rect id="Rectangle_46-16" data-name="Rectangle 46" width="26" height="22" transform="translate(1030 542)" fill="#f5f5e7"/>
        </g>
        <g transform="translate(-874 -499)">
          <rect id="Rectangle_46-17" data-name="Rectangle 46" width="26" height="22" transform="translate(1030 542)" fill="#f5f5e7"/>
        </g>
        <g transform="translate(-835 -499)">
          <rect id="Rectangle_46-18" data-name="Rectangle 46" width="26" height="22" transform="translate(1030 542)" fill="#f5f5e7"/>
        </g>
        <g transform="translate(-796 -499)">
          <rect id="Rectangle_46-19" data-name="Rectangle 46" width="26" height="22" transform="translate(1030 542)" fill="#f5f5e7"/>
        </g>
        <g transform="translate(-757 -499)">
          <rect id="Rectangle_46-20" data-name="Rectangle 46" width="26" height="22" transform="translate(1030 542)" fill="#f5f5e7"/>
        </g>
        <g transform="translate(-718 -499)">
          <rect id="Rectangle_46-21" data-name="Rectangle 46" width="26" height="22" transform="translate(1030 542)" fill="#f5f5e7"/>
        </g>
        <g transform="translate(-679 -499)">
          <rect id="Rectangle_46-22" data-name="Rectangle 46" width="26" height="22" transform="translate(1030 542)" fill="#f5f5e7"/>
        </g>
        <g transform="translate(-640 -499)">
          <rect id="Rectangle_46-23" data-name="Rectangle 46" width="26" height="22" transform="translate(1030 542)" fill="#f5f5e7"/>
        </g>
        <g transform="translate(-601 -499)">
          <rect id="Rectangle_46-24" data-name="Rectangle 46" width="26" height="22" transform="translate(1030 542)" fill="#f5f5e7"/>
        </g>
        <g transform="translate(-1030 -456)">
          <rect id="Rectangle_46-25" data-name="Rectangle 46" width="26" height="22" transform="translate(1030 542)" fill="#f5f5e7"/>
        </g>
        <g transform="translate(-991 -456)">
          <rect id="Rectangle_46-26" data-name="Rectangle 46" width="26" height="22" transform="translate(1030 542)" fill="#f5f5e7"/>
        </g>
        <g transform="translate(-952 -456)">
          <rect id="Rectangle_46-27" data-name="Rectangle 46" width="26" height="22" transform="translate(1030 542)" fill="#f5f5e7"/>
        </g>
        <g transform="translate(-913 -456)">
          <rect id="Rectangle_46-28" data-name="Rectangle 46" width="26" height="22" transform="translate(1030 542)" fill="#f5f5e7"/>
        </g>
        <g transform="translate(-874 -456)">
          <rect id="Rectangle_46-29" data-name="Rectangle 46" width="26" height="22" transform="translate(1030 542)" fill="#f5f5e7"/>
        </g>
        <g transform="translate(-835 -456)">
          <rect id="Rectangle_46-30" data-name="Rectangle 46" width="26" height="22" transform="translate(1030 542)" fill="#f5f5e7"/>
        </g>
        <g transform="translate(-796 -456)">
          <rect id="Rectangle_46-31" data-name="Rectangle 46" width="26" height="22" transform="translate(1030 542)" fill="#f5f5e7"/>
        </g>
        <g transform="translate(-757 -456)">
          <rect id="Rectangle_46-32" data-name="Rectangle 46" width="26" height="22" transform="translate(1030 542)" fill="#f5f5e7"/>
        </g>
        <g transform="translate(-718 -456)">
          <rect id="Rectangle_46-33" data-name="Rectangle 46" width="26" height="22" transform="translate(1030 542)" fill="#f5f5e7"/>
        </g>
        <g transform="translate(-679 -456)">
          <rect id="Rectangle_46-34" data-name="Rectangle 46" width="26" height="22" transform="translate(1030 542)" fill="#f5f5e7"/>
        </g>
        <g transform="translate(-640 -456)">
          <rect id="Rectangle_46-35" data-name="Rectangle 46" width="26" height="22" transform="translate(1030 542)" fill="#f5f5e7"/>
        </g>
        <g transform="translate(-601 -456)">
          <rect id="Rectangle_46-36" data-name="Rectangle 46" width="26" height="22" transform="translate(1030 542)" fill="#f5f5e7"/>
        </g>
        <g transform="translate(-1030 -413)">
          <rect id="Rectangle_46-37" data-name="Rectangle 46" width="26" height="22" transform="translate(1030 542)" fill="#f5f5e7"/>
        </g>
        <g transform="translate(-991 -413)">
          <rect id="Rectangle_46-38" data-name="Rectangle 46" width="26" height="22" transform="translate(1030 542)" fill="#f5f5e7"/>
        </g>
        <g transform="translate(-952 -413)">
          <rect id="Rectangle_46-39" data-name="Rectangle 46" width="26" height="22" transform="translate(1030 542)" fill="#f5f5e7"/>
        </g>
        <g transform="translate(-913 -413)">
          <rect id="Rectangle_46-40" data-name="Rectangle 46" width="26" height="22" transform="translate(1030 542)" fill="#f5f5e7"/>
        </g>
        <g transform="translate(-874 -413)">
          <rect id="Rectangle_46-41" data-name="Rectangle 46" width="26" height="22" transform="translate(1030 542)" fill="#f5f5e7"/>
        </g>
        <g transform="translate(-835 -413)">
          <rect id="Rectangle_46-42" data-name="Rectangle 46" width="26" height="22" transform="translate(1030 542)" fill="#f5f5e7"/>
        </g>
        <g transform="translate(-796 -413)">
          <rect id="Rectangle_46-43" data-name="Rectangle 46" width="26" height="22" transform="translate(1030 542)" fill="#f5f5e7"/>
        </g>
        <g transform="translate(-757 -413)">
          <rect id="Rectangle_46-44" data-name="Rectangle 46" width="26" height="22" transform="translate(1030 542)" fill="#f5f5e7"/>
        </g>
        <g transform="translate(-718 -413)">
          <rect id="Rectangle_46-45" data-name="Rectangle 46" width="26" height="22" transform="translate(1030 542)" fill="#f5f5e7"/>
        </g>
        <g transform="translate(-679 -413)">
          <rect id="Rectangle_46-46" data-name="Rectangle 46" width="26" height="22" transform="translate(1030 542)" fill="#f5f5e7"/>
        </g>
        <g transform="translate(-640 -413)">
          <rect id="Rectangle_46-47" data-name="Rectangle 46" width="26" height="22" transform="translate(1030 542)" fill="#f5f5e7"/>
        </g>
        <g transform="translate(-601 -413)">
          <rect id="Rectangle_46-48" data-name="Rectangle 46" width="26" height="22" transform="translate(1030 542)" fill="#f5f5e7"/>
        </g>
        <g transform="translate(-1030 -370)">
          <rect id="Rectangle_46-49" data-name="Rectangle 46" width="26" height="22" transform="translate(1030 542)" fill="#f5f5e7"/>
        </g>
        <g transform="translate(-991 -370)">
          <rect id="Rectangle_46-50" data-name="Rectangle 46" width="26" height="22" transform="translate(1030 542)" fill="#f5f5e7"/>
        </g>
        <g transform="translate(-952 -370)">
          <rect id="Rectangle_46-51" data-name="Rectangle 46" width="26" height="22" transform="translate(1030 542)" fill="#f5f5e7"/>
        </g>
        <g transform="translate(-913 -370)">
          <rect id="Rectangle_46-52" data-name="Rectangle 46" width="26" height="22" transform="translate(1030 542)" fill="#f5f5e7"/>
        </g>
        <g transform="translate(-874 -370)">
          <rect id="Rectangle_46-53" data-name="Rectangle 46" width="26" height="22" transform="translate(1030 542)" fill="#f5f5e7"/>
        </g>
        <g transform="translate(-835 -370)">
          <rect id="Rectangle_46-54" data-name="Rectangle 46" width="26" height="22" transform="translate(1030 542)" fill="#f5f5e7"/>
        </g>
        <g transform="translate(-796 -370)">
          <rect id="Rectangle_46-55" data-name="Rectangle 46" width="26" height="22" transform="translate(1030 542)" fill="#f5f5e7"/>
        </g>
        <g transform="translate(-757 -370)">
          <rect id="Rectangle_46-56" data-name="Rectangle 46" width="26" height="22" transform="translate(1030 542)" fill="#f5f5e7"/>
        </g>
        <g transform="translate(-718 -370)">
          <rect id="Rectangle_46-57" data-name="Rectangle 46" width="26" height="22" transform="translate(1030 542)" fill="#f5f5e7"/>
        </g>
        <g transform="translate(-679 -370)">
          <rect id="Rectangle_46-58" data-name="Rectangle 46" width="26" height="22" transform="translate(1030 542)" fill="#f5f5e7"/>
        </g>
        <g transform="translate(-640 -370)">
          <rect id="Rectangle_46-59" data-name="Rectangle 46" width="26" height="22" transform="translate(1030 542)" fill="#f5f5e7"/>
        </g>
        <g transform="translate(-601 -370)">
          <rect id="Rectangle_46-60" data-name="Rectangle 46" width="26" height="22" transform="translate(1030 542)" fill="#f5f5e7"/>
        </g>
      </g>
    </g>
  </g>
</svg>
