<svg xmlns="http://www.w3.org/2000/svg" xmlns:xlink="http://www.w3.org/1999/xlink" width="1936.01" height="1080" viewBox="0 0 1936.01 1080">
  <defs>
    <linearGradient id="linear-gradient" x1="0.5" x2="0.5" y2="1" gradientUnits="objectBoundingBox">
      <stop offset="0" stop-color="#F76F6E"/>
      <stop offset="1" stop-color="#F7F6A7"/>
    </linearGradient>
    <linearGradient id="linear-gradient-2" x1="0.5" x2="0.5" y2="1" gradientUnits="objectBoundingBox">
      <stop offset="0" stop-color="#f5ff00"/>
      <stop offset="1" stop-color="#d0750b"/>
    </linearGradient>
    <filter id="Rectangle_41" x="26.01" y="488" width="279" height="134" filterUnits="userSpaceOnUse">
      <feOffset dx="-7" dy="3" input="SourceAlpha"/>
      <feGaussianBlur stdDeviation="3" result="blur"/>
      <feFlood flood-color="#210404" flood-opacity="0.161"/>
      <feComposite operator="in" in2="blur"/>
      <feComposite in="SourceGraphic"/>
    </filter>
    <filter id="Rectangle_41-2" x="307.01" y="488" width="279" height="134" filterUnits="userSpaceOnUse">
      <feOffset dx="-7" dy="3" input="SourceAlpha"/>
      <feGaussianBlur stdDeviation="3" result="blur-2"/>
      <feFlood flood-color="#210404" flood-opacity="0.161"/>
      <feComposite operator="in" in2="blur-2"/>
      <feComposite in="SourceGraphic"/>
    </filter>
    <filter id="Rectangle_41-3" x="588.01" y="488" width="279" height="134" filterUnits="userSpaceOnUse">
      <feOffset dx="-7" dy="3" input="SourceAlpha"/>
      <feGaussianBlur stdDeviation="3" result="blur-3"/>
      <feFlood flood-color="#210404" flood-opacity="0.161"/>
      <feComposite operator="in" in2="blur-3"/>
      <feComposite in="SourceGraphic"/>
    </filter>
    <filter id="Rectangle_41-4" x="26.01" y="624" width="279" height="134" filterUnits="userSpaceOnUse">
      <feOffset dx="-7" dy="3" input="SourceAlpha"/>
      <feGaussianBlur stdDeviation="3" result="blur-4"/>
      <feFlood flood-color="#210404" flood-opacity="0.161"/>
      <feComposite operator="in" in2="blur-4"/>
      <feComposite in="SourceGraphic"/>
    </filter>
    <filter id="Rectangle_41-5" x="307.01" y="624" width="279" height="134" filterUnits="userSpaceOnUse">
      <feOffset dx="-7" dy="3" input="SourceAlpha"/>
      <feGaussianBlur stdDeviation="3" result="blur-5"/>
      <feFlood flood-color="#210404" flood-opacity="0.161"/>
      <feComposite operator="in" in2="blur-5"/>
      <feComposite in="SourceGraphic"/>
    </filter>
    <filter id="Rectangle_41-6" x="588.01" y="624" width="279" height="134" filterUnits="userSpaceOnUse">
      <feOffset dx="-7" dy="3" input="SourceAlpha"/>
      <feGaussianBlur stdDeviation="3" result="blur-6"/>
      <feFlood flood-color="#210404" flood-opacity="0.161"/>
      <feComposite operator="in" in2="blur-6"/>
      <feComposite in="SourceGraphic"/>
    </filter>
    <filter id="Rectangle_41-7" x="26.01" y="760" width="279" height="134" filterUnits="userSpaceOnUse">
      <feOffset dx="-7" dy="3" input="SourceAlpha"/>
      <feGaussianBlur stdDeviation="3" result="blur-7"/>
      <feFlood flood-color="#210404" flood-opacity="0.161"/>
      <feComposite operator="in" in2="blur-7"/>
      <feComposite in="SourceGraphic"/>
    </filter>
    <filter id="Rectangle_41-8" x="307.01" y="760" width="279" height="134" filterUnits="userSpaceOnUse">
      <feOffset dx="-7" dy="3" input="SourceAlpha"/>
      <feGaussianBlur stdDeviation="3" result="blur-8"/>
      <feFlood flood-color="#210404" flood-opacity="0.161"/>
      <feComposite operator="in" in2="blur-8"/>
      <feComposite in="SourceGraphic"/>
    </filter>
    <filter id="Rectangle_41-9" x="588.01" y="760" width="279" height="134" filterUnits="userSpaceOnUse">
      <feOffset dx="-7" dy="3" input="SourceAlpha"/>
      <feGaussianBlur stdDeviation="3" result="blur-9"/>
      <feFlood flood-color="#210404" flood-opacity="0.161"/>
      <feComposite operator="in" in2="blur-9"/>
      <feComposite in="SourceGraphic"/>
    </filter>
    <linearGradient id="linear-gradient-3" x1="2.634" y1="0.431" x2="-3.523" y2="0.435" gradientUnits="objectBoundingBox">
      <stop offset="0" stop-color="#fff"/>
      <stop offset="0.97" stop-color="#adadad"/>
      <stop offset="1" stop-color="#ffe0e0"/>
    </linearGradient>
    <filter id="Rectangle_32" x="527.01" y="743" width="22" height="167" filterUnits="userSpaceOnUse">
      <feOffset dx="4" input="SourceAlpha"/>
      <feGaussianBlur stdDeviation="3" result="blur-10"/>
      <feFlood flood-opacity="0.161"/>
      <feComposite operator="in" in2="blur-10"/>
      <feComposite in="SourceGraphic"/>
    </filter>
    <linearGradient id="linear-gradient-4" x1="-0.758" y1="0.5" x2="2.532" y2="0.5" gradientUnits="objectBoundingBox">
      <stop offset="0" stop-color="#fff"/>
      <stop offset="1" stop-color="gray"/>
    </linearGradient>
    <filter id="Rectangle_36" x="1091.01" y="522" width="845" height="123" filterUnits="userSpaceOnUse">
      <feOffset dy="20" input="SourceAlpha"/>
      <feGaussianBlur stdDeviation="5" result="blur-11"/>
      <feFlood flood-opacity="0.09"/>
      <feComposite operator="in" in2="blur-11"/>
      <feComposite in="SourceGraphic"/>
    </filter>
  </defs>
  <g id="Group_12" data-name="Group 12" transform="translate(0.01)">
    <rect id="Rectangle_21" data-name="Rectangle 21" width="1920" height="1080" fill="url(#linear-gradient)"/>
    <ellipse id="Ellipse_15" data-name="Ellipse 15" cx="267.5" cy="255.5" rx="267.5" ry="255.5" transform="translate(455 199)" fill="url(#linear-gradient-2)"/>
    <path id="Path_26" data-name="Path 26" d="M487.5,0C756.739,0,975,14.775,975,33S756.739,66,487.5,66,42.99,55.92,42.99,37.695,218.261,0,487.5,0Z" transform="translate(-43 895)" fill="rgba(183,110,110,0.36)"/>
    <rect id="Rectangle_33" data-name="Rectangle 33" width="1106" height="477" transform="translate(0 451)" fill="#ebebeb"/>
    <g transform="matrix(1, 0, 0, 1, -0.01, 0)" filter="url(#Rectangle_41)">
      <rect id="Rectangle_41-10" data-name="Rectangle 41" width="116" height="261" transform="translate(42.01 610) rotate(-90)" fill="rgba(250,249,232,0.72)"/>
    </g>
    <g transform="matrix(1, 0, 0, 1, -0.01, 0)" filter="url(#Rectangle_41-2)">
      <rect id="Rectangle_41-11" data-name="Rectangle 41" width="116" height="261" transform="translate(323.01 610) rotate(-90)" fill="rgba(250,249,232,0.72)"/>
    </g>
    <g transform="matrix(1, 0, 0, 1, -0.01, 0)" filter="url(#Rectangle_41-3)">
      <rect id="Rectangle_41-12" data-name="Rectangle 41" width="116" height="261" transform="translate(604.01 610) rotate(-90)" fill="rgba(250,249,232,0.72)"/>
    </g>
    <g transform="matrix(1, 0, 0, 1, -0.01, 0)" filter="url(#Rectangle_41-4)">
      <rect id="Rectangle_41-13" data-name="Rectangle 41" width="116" height="261" transform="translate(42.01 746) rotate(-90)" fill="rgba(250,249,232,0.72)"/>
    </g>
    <g transform="matrix(1, 0, 0, 1, -0.01, 0)" filter="url(#Rectangle_41-5)">
      <rect id="Rectangle_41-14" data-name="Rectangle 41" width="116" height="261" transform="translate(323.01 746) rotate(-90)" fill="rgba(250,249,232,0.72)"/>
    </g>
    <g transform="matrix(1, 0, 0, 1, -0.01, 0)" filter="url(#Rectangle_41-6)">
      <rect id="Rectangle_41-15" data-name="Rectangle 41" width="116" height="261" transform="translate(604.01 746) rotate(-90)" fill="rgba(250,249,232,0.72)"/>
    </g>
    <g transform="matrix(1, 0, 0, 1, -0.01, 0)" filter="url(#Rectangle_41-7)">
      <rect id="Rectangle_41-16" data-name="Rectangle 41" width="116" height="261" transform="translate(42.01 882) rotate(-90)" fill="rgba(250,249,232,0.72)"/>
    </g>
    <g transform="matrix(1, 0, 0, 1, -0.01, 0)" filter="url(#Rectangle_41-8)">
      <rect id="Rectangle_41-17" data-name="Rectangle 41" width="116" height="261" transform="translate(323.01 882) rotate(-90)" fill="rgba(250,249,232,0.72)"/>
    </g>
    <g transform="matrix(1, 0, 0, 1, -0.01, 0)" filter="url(#Rectangle_41-9)">
      <rect id="Rectangle_41-18" data-name="Rectangle 41" width="116" height="261" transform="translate(604.01 882) rotate(-90)" fill="rgba(250,249,232,0.72)"/>
    </g>
    <ellipse id="Ellipse_12" data-name="Ellipse 12" cx="354" cy="16" rx="354" ry="16" transform="translate(42 999)" fill="rgba(183,110,110,0.36)"/>
    <rect id="Rectangle_22" data-name="Rectangle 22" width="455" height="248" transform="translate(77 710)" fill="#fff"/>
    <path id="Path_23" data-name="Path 23" d="M34,0c215.876,11.617,206.66,34,206.66,34V90.358a34.075,34.075,0,0,1-26.692,33.21,33.572,33.572,0,0,1-7.3.787H34a34,34,0,0,1-34-34V34A34,34,0,0,1,34,0Z" transform="translate(503.74 833.459)" fill="#fff"/>
    <path id="Path_24" data-name="Path 24" d="M28.181,0l125.7.421c1.572,0-1.768-.293,0,0,13.1,2.157,0,13.768,0,27.76A28.181,28.181,0,0,1,125.7,56.362H28.181A28.181,28.181,0,0,1,28.181,0Z" transform="translate(590.52 900.557)" fill="#FF5050"/>
    <rect id="Rectangle_23" data-name="Rectangle 23" width="583" height="57" transform="translate(77 901)" fill="#FF5050"/>
    <path id="Path_21" data-name="Path 21" d="M92.566,7.878l78.405,114.545L6.372,168.866-38,7.878Z" transform="translate(489.689 731.734)" fill="#fff"/>
    <ellipse id="Ellipse_8" data-name="Ellipse 8" cx="56.5" cy="57" rx="56.5" ry="57" transform="translate(182 901)"/>
    <ellipse id="Ellipse_9" data-name="Ellipse 9" cx="56.5" cy="57" rx="56.5" ry="57" transform="translate(591 901)"/>
    <path id="Path_22" data-name="Path 22" d="M0-11.9,58.151-1.254v13.42H0Z" transform="translate(532.369 739.882)" fill="#FF5050"/>
    <g id="Group_11" data-name="Group 11" transform="translate(198.223 778.887)">
      <g id="Group_1" data-name="Group 1" transform="translate(0)">
        <rect id="Rectangle_4" data-name="Rectangle 4" width="21" height="57" transform="translate(18.777 0.113)" fill="#ff3838"/>
        <rect id="Rectangle_5" data-name="Rectangle 5" width="20.807" height="57.869" transform="translate(57.869 18.531) rotate(90)" fill="#ff3838"/>
      </g>
    </g>
    <rect id="Rectangle_24" data-name="Rectangle 24" width="363" height="3" transform="translate(77 864)" fill="#FF5050"/>
    <rect id="Rectangle_25" data-name="Rectangle 25" width="363" height="4" transform="translate(77 855)" fill="#FF5050"/>
    <rect id="Rectangle_28" data-name="Rectangle 28" width="204" height="3" transform="translate(540 893)" fill="#FF5050"/>
    <rect id="Rectangle_29" data-name="Rectangle 29" width="204" height="3" transform="translate(540 884)" fill="#FF5050"/>
    <g transform="matrix(1, 0, 0, 1, -0.01, 0)" filter="url(#Rectangle_32)">
      <rect id="Rectangle_32-2" data-name="Rectangle 32" width="4" height="149" transform="translate(532.01 752)" fill="url(#linear-gradient-3)"/>
    </g>
    <rect id="Rectangle_30" data-name="Rectangle 30" width="104.672" height="3.579" transform="translate(440.404 854.981) rotate(16)" fill="#FF5050"/>
    <rect id="Rectangle_31" data-name="Rectangle 31" width="104.672" height="3.579" transform="translate(439.51 863.927) rotate(16)" fill="#FF5050"/>
    <circle id="Ellipse_10" data-name="Ellipse 10" cx="31" cy="31" r="31" transform="translate(208 926)" fill="#fff"/>
    <ellipse id="Ellipse_11" data-name="Ellipse 11" cx="31.5" cy="31" rx="31.5" ry="31" transform="translate(616 926)" fill="#fdfdfd"/>
    <path id="Path_25" data-name="Path 25" d="M0,0H53.552l47.541,71.818L0,76.044Z" transform="translate(541.315 769.94)" fill="#d3fff0"/>
    <ellipse id="Ellipse_13" data-name="Ellipse 13" cx="530.5" cy="22" rx="530.5" ry="22" transform="translate(859 928)" fill="rgba(183,110,110,0.36)"/>
    <rect id="Rectangle_34" data-name="Rectangle 34" width="1032" height="635" transform="translate(888 309)" fill="#f0f0f0"/>
    <rect id="Rectangle_35" data-name="Rectangle 35" width="42" height="477" transform="translate(846 451)" fill="url(#linear-gradient-4)"/>
    <rect id="Rectangle_37" data-name="Rectangle 37" width="71" height="377" transform="translate(1218 610)" fill="#e8e8e8"/>
    <rect id="Rectangle_38" data-name="Rectangle 38" width="36" height="377" transform="translate(1885 610)" fill="#e8e8e8"/>
    <g transform="matrix(1, 0, 0, 1, -0.01, 0)" filter="url(#Rectangle_36)">
      <rect id="Rectangle_36-2" data-name="Rectangle 36" width="815" height="88" transform="translate(1106.01 522)" fill="#e8e8e8"/>
    </g>
  </g>
</svg>
