<svg xmlns="http://www.w3.org/2000/svg" xmlns:xlink="http://www.w3.org/1999/xlink" width="712" height="653" viewBox="0 0 712 653">
  <defs>
    <filter id="Path_28" x="373" y="121" width="164" height="164" filterUnits="userSpaceOnUse">
      <feOffset dy="3" input="SourceAlpha"/>
      <feGaussianBlur stdDeviation="3" result="blur"/>
      <feFlood flood-opacity="0.161"/>
      <feComposite operator="in" in2="blur"/>
      <feComposite in="SourceGraphic"/>
    </filter>
    <filter id="Ellipse_2" x="22" y="487" width="612" height="78" filterUnits="userSpaceOnUse">
      <feOffset dy="10" input="SourceAlpha"/>
      <feGaussianBlur stdDeviation="3" result="blur-2"/>
      <feFlood flood-color="#d62525" flood-opacity="0.051"/>
      <feComposite operator="in" in2="blur-2"/>
      <feComposite in="SourceGraphic"/>
    </filter>
    <filter id="Rectangle_1" x="137" y="91" width="311" height="424" filterUnits="userSpaceOnUse">
      <feOffset dx="3" dy="3" input="SourceAlpha"/>
      <feGaussianBlur stdDeviation="3" result="blur-3"/>
      <feFlood flood-opacity="0.161"/>
      <feComposite operator="in" in2="blur-3"/>
      <feComposite in="SourceGraphic"/>
    </filter>
    <filter id="Rectangle_2" x="299" y="221" width="311" height="301" filterUnits="userSpaceOnUse">
      <feOffset dx="3" dy="-3" input="SourceAlpha"/>
      <feGaussianBlur stdDeviation="3" result="blur-4"/>
      <feFlood flood-opacity="0.161"/>
      <feComposite operator="in" in2="blur-4"/>
      <feComposite in="SourceGraphic"/>
    </filter>
    <filter id="Rectangle_3" x="52" y="362" width="311" height="160" filterUnits="userSpaceOnUse">
      <feOffset dx="3" dy="-3" input="SourceAlpha"/>
      <feGaussianBlur stdDeviation="3" result="blur-5"/>
      <feFlood flood-opacity="0.161"/>
      <feComposite operator="in" in2="blur-5"/>
      <feComposite in="SourceGraphic"/>
    </filter>
    <filter id="Ellipse_20" x="49" y="236" width="131" height="131" filterUnits="userSpaceOnUse">
      <feOffset dy="3" input="SourceAlpha"/>
      <feGaussianBlur stdDeviation="3" result="blur-6"/>
      <feFlood flood-opacity="0.161"/>
      <feComposite operator="in" in2="blur-6"/>
      <feComposite in="SourceGraphic"/>
    </filter>
  </defs>
  <g id="Group_21" data-name="Group 21" transform="translate(-1173 -247)">
    <g id="Group_20" data-name="Group 20">
      <g id="Group_19" data-name="Group 19">
        <g id="Ellipse_26" data-name="Ellipse 26" transform="translate(1635 650)" fill="none" stroke="#fff" stroke-width="3" stroke-dasharray="10" style="mix-blend-mode: screen;isolation: isolate">
          <circle cx="125" cy="125" r="125" stroke="none"/>
          <circle cx="125" cy="125" r="123.5" fill="none"/>
        </g>
        <g id="Ellipse_25" data-name="Ellipse 25" transform="translate(1654 669)" fill="none" stroke="#fff" stroke-width="3" style="mix-blend-mode: screen;isolation: isolate">
          <circle cx="106" cy="106" r="106" stroke="none"/>
          <circle cx="106" cy="106" r="104.5" fill="none"/>
        </g>
        <g id="Group_18" data-name="Group 18" transform="translate(67 -35)">
          <g transform="matrix(1, 0, 0, 1, 1106, 282)" filter="url(#Path_28)">
            <path id="Path_28-2" data-name="Path 28" d="M73,0A73,73,0,1,1,0,73,73,73,0,0,1,73,0Z" transform="translate(382 127)" fill="#fad14a"/>
          </g>
          <g transform="matrix(1, 0, 0, 1, 1106, 282)" filter="url(#Ellipse_2)">
            <ellipse id="Ellipse_2-2" data-name="Ellipse 2" cx="297" cy="29.5" rx="297" ry="29.5" transform="translate(31 487)" fill="#ff9393"/>
          </g>
          <g id="Group_2" data-name="Group 2" transform="translate(474 48)" style="isolation: isolate">
            <g transform="matrix(1, 0, 0, 1, 632, 234)" filter="url(#Rectangle_1)">
              <rect id="Rectangle_1-2" data-name="Rectangle 1" width="293" height="406" transform="translate(143 97)" fill="#f7d4d4"/>
            </g>
            <g transform="matrix(1, 0, 0, 1, 632, 234)" filter="url(#Rectangle_2)">
              <path id="Rectangle_2-2" data-name="Rectangle 2" d="M0,0H293V283H0Z" transform="translate(305 233)" fill="#ffb2b2"/>
            </g>
            <g transform="matrix(1, 0, 0, 1, 632, 234)" filter="url(#Rectangle_3)">
              <rect id="Rectangle_3-2" data-name="Rectangle 3" width="293" height="142" transform="translate(58 374)" fill="#f48080"/>
            </g>
            <g id="Group_1" data-name="Group 1" transform="translate(453 94)">
              <rect id="Rectangle_4" data-name="Rectangle 4" width="23" height="64" transform="translate(383 283)" fill="#ff3838"/>
              <rect id="Rectangle_5" data-name="Rectangle 5" width="23.258" height="64.685" transform="translate(426.185 303.714) rotate(90)" fill="#ff3838"/>
            </g>
            <rect id="Rectangle_6" data-name="Rectangle 6" width="67" height="57" transform="translate(1001 517)" fill="#fff"/>
            <rect id="Rectangle_8" data-name="Rectangle 8" width="67" height="57" transform="translate(1001 593)" fill="#fff"/>
            <rect id="Rectangle_11" data-name="Rectangle 11" width="67" height="57" transform="translate(1001 669)" fill="#fff"/>
            <rect id="Rectangle_12" data-name="Rectangle 12" width="67" height="57" transform="translate(1108 519)" fill="#fff"/>
            <rect id="Rectangle_13" data-name="Rectangle 13" width="67" height="57" transform="translate(1108 593)" fill="#fff"/>
            <rect id="Rectangle_14" data-name="Rectangle 14" width="67" height="57" transform="translate(1108 667)" fill="#fff"/>
            <rect id="Rectangle_15" data-name="Rectangle 15" width="218" height="45" transform="translate(727 634)" fill="#fff"/>
            <rect id="Rectangle_16" data-name="Rectangle 16" width="120" height="45" transform="translate(727 692)" fill="#fff"/>
          </g>
          <circle id="Ellipse_17" data-name="Ellipse 17" cx="34.5" cy="34.5" r="34.5" transform="translate(1106 430)" fill="#ffb2b2"/>
          <circle id="Ellipse_18" data-name="Ellipse 18" cx="33.5" cy="33.5" r="33.5" transform="translate(1304 291)" fill="#e8e844"/>
          <circle id="Ellipse_19" data-name="Ellipse 19" cx="31.5" cy="31.5" r="31.5" transform="translate(1106 738)" fill="#fad14a"/>
          <g transform="matrix(1, 0, 0, 1, 1106, 282)" filter="url(#Ellipse_20)">
            <circle id="Ellipse_20-2" data-name="Ellipse 20" cx="56.5" cy="56.5" r="56.5" transform="translate(58 242)" fill="#a5d2ff"/>
          </g>
          <circle id="Ellipse_22" data-name="Ellipse 22" cx="33.5" cy="33.5" r="33.5" transform="translate(1304 291)" fill="#e8e844"/>
        </g>
        <g id="Ellipse_24" data-name="Ellipse 24" transform="translate(1250 508)" fill="none" stroke="#fff" stroke-width="3" stroke-dasharray="10 10">
          <circle cx="37.5" cy="37.5" r="37.5" stroke="none"/>
          <circle cx="37.5" cy="37.5" r="36" fill="none"/>
        </g>
        <circle id="Ellipse_27" data-name="Ellipse 27" cx="20" cy="20" r="20" transform="translate(1367 247)" fill="#fff" style="mix-blend-mode: soft-light;isolation: isolate"/>
        <circle id="Ellipse_28" data-name="Ellipse 28" cx="20" cy="20" r="20" transform="translate(1220 713)" fill="#fff" style="mix-blend-mode: soft-light;isolation: isolate"/>
      </g>
    </g>
  </g>
</svg>
