<svg xmlns="http://www.w3.org/2000/svg" xmlns:xlink="http://www.w3.org/1999/xlink" width="560" height="437" viewBox="0 0 560 437">
  <defs>
    <filter id="Rectangle_1" x="86" y="0" width="311" height="424" filterUnits="userSpaceOnUse">
      <feOffset dx="3" dy="3" input="SourceAlpha"/>
      <feGaussianBlur stdDeviation="3" result="blur"/>
      <feFlood flood-opacity="0.161"/>
      <feComposite operator="in" in2="blur"/>
      <feComposite in="SourceGraphic"/>
    </filter>
    <filter id="Rectangle_2" x="249" y="136" width="311" height="301" filterUnits="userSpaceOnUse">
      <feOffset dx="3" dy="3" input="SourceAlpha"/>
      <feGaussianBlur stdDeviation="3" result="blur-2"/>
      <feFlood flood-opacity="0.161"/>
      <feComposite operator="in" in2="blur-2"/>
      <feComposite in="SourceGraphic"/>
    </filter>
    <filter id="Rectangle_3" x="0" y="277" width="311" height="160" filterUnits="userSpaceOnUse">
      <feOffset dx="3" dy="3" input="SourceAlpha"/>
      <feGaussianBlur stdDeviation="3" result="blur-3"/>
      <feFlood flood-opacity="0.161"/>
      <feComposite operator="in" in2="blur-3"/>
      <feComposite in="SourceGraphic"/>
    </filter>
  </defs>
  <g id="Group_2" data-name="Group 2" transform="translate(-722 -318)">
    <g transform="matrix(1, 0, 0, 1, 722, 318)" filter="url(#Rectangle_1)">
      <rect id="Rectangle_1-2" data-name="Rectangle 1" width="293" height="406" transform="translate(92 6)" fill="#c6c6c6"/>
    </g>
    <g transform="matrix(1, 0, 0, 1, 722, 318)" filter="url(#Rectangle_2)">
      <rect id="Rectangle_2-2" data-name="Rectangle 2" width="293" height="283" transform="translate(255 142)" fill="#dbdbdb"/>
    </g>
    <g transform="matrix(1, 0, 0, 1, 722, 318)" filter="url(#Rectangle_3)">
      <rect id="Rectangle_3-2" data-name="Rectangle 3" width="293" height="142" transform="translate(6 283)" fill="#ebebeb"/>
    </g>
    <g id="Group_1" data-name="Group 1" transform="translate(492 87)">
      <rect id="Rectangle_4" data-name="Rectangle 4" width="23" height="64" transform="translate(383 283)" fill="#ff3838"/>
      <rect id="Rectangle_5" data-name="Rectangle 5" width="23.258" height="64.685" transform="translate(426.185 303.714) rotate(90)" fill="#ff3838"/>
    </g>
    <rect id="Rectangle_6" data-name="Rectangle 6" width="67" height="57" transform="translate(1040 510)" fill="#fff"/>
    <rect id="Rectangle_8" data-name="Rectangle 8" width="67" height="57" transform="translate(1040 586)" fill="#fff"/>
    <rect id="Rectangle_11" data-name="Rectangle 11" width="67" height="57" transform="translate(1040 662)" fill="#fff"/>
    <rect id="Rectangle_12" data-name="Rectangle 12" width="67" height="57" transform="translate(1147 512)" fill="#fff"/>
    <rect id="Rectangle_13" data-name="Rectangle 13" width="67" height="57" transform="translate(1147 586)" fill="#fff"/>
    <rect id="Rectangle_14" data-name="Rectangle 14" width="67" height="57" transform="translate(1147 660)" fill="#fff"/>
    <rect id="Rectangle_15" data-name="Rectangle 15" width="218" height="45" transform="translate(766 627)" fill="#fff"/>
    <rect id="Rectangle_16" data-name="Rectangle 16" width="120" height="45" transform="translate(766 685)" fill="#fff"/>
  </g>
</svg>
