<?xml version="1.0" encoding="UTF-8" standalone="no"?> <!-- Created with Vectornator for iOS (http://vectornator.io/) --><!DOCTYPE svg PUBLIC "-//W3C//DTD SVG 1.1//EN" "http://www.w3.org/Graphics/SVG/1.1/DTD/svg11.dtd">
<svg height="100%" style="fill-rule:evenodd;clip-rule:evenodd;stroke-linecap:round;stroke-linejoin:round;" xmlns:xlink="http://www.w3.org/1999/xlink" xmlns="http://www.w3.org/2000/svg" xml:space="preserve" width="100%" xmlns:vectornator="http://vectornator.io" version="1.1" viewBox="0 0 1024 1024">
<metadata>
<vectornator:setting key="DisplayWhiteBackground" value="0"/>
<vectornator:setting key="RulersVisible" value="1"/>
<vectornator:setting key="SnapToEdges" value="0"/>
<vectornator:setting key="Units" value="Pixels"/>
<vectornator:setting key="DynamicGuides" value="1"/>
<vectornator:setting key="SnapToPoints" value="0"/>
<vectornator:setting key="CMYKEnabledKey" value="0"/>
<vectornator:setting key="SnapToGrid" value="0"/>
<vectornator:setting key="SnapToGuides" value="1"/>
<vectornator:setting key="GridSpacing" value="36"/>
</metadata>
<defs>
<linearGradient y1="1088.53" id="LinearGradient" x1="391.905" y2="1088.53" x2="391.905" gradientUnits="userSpaceOnUse" gradientTransform="matrix(1 0 0 1 0 0)">
<stop stop-color="#f85c5c" offset="0.0125"/>
<stop stop-color="#ff5d9f" offset="1"/>
</linearGradient>
<linearGradient y1="381.31" id="LinearGradient_2" x1="264.788" y2="381.31" x2="569.287" gradientUnits="userSpaceOnUse" gradientTransform="matrix(2.68693 0 0 2.68693 -608.551 -517.04)">
<stop stop-color="#f85c5c" offset="0.0125"/>
<stop stop-color="#ff5d9f" offset="1"/>
</linearGradient>
</defs>
<g id="Layer 1" vectornator:layerName="Layer 1">
<g opacity="1">
<path d="M1075.53+543.193L1075.53+558.232L1032.99+558.232L1032.99+669.436L1015.63+669.436L1015.63+558.232L973.091+558.232L973.091+543.193L1075.53+543.193Z" opacity="1" fill="#ffffff"/>
<path d="M1019.93+777.734C1026.46+777.734+1032.79+779.267+1038.92+782.332C1045.05+785.397+1049.72+789.364+1052.93+794.234C1056.02+798.875+1058.08+804.289+1059.11+810.476C1060.03+814.716+1060.49+821.476+1060.49+830.757L993.029+830.757C993.315+840.096+995.521+847.587+999.646+853.23C1003.77+858.873+1010.16+861.695+1018.81+861.695C1026.89+861.695+1033.33+859.031+1038.15+853.703C1040.9+850.609+1042.84+847.028+1043.99+842.961L1059.2+842.961C1058.8+846.341+1057.47+850.108+1055.2+854.261C1052.94+858.415+1050.41+861.81+1047.6+864.445C1042.9+869.028+1037.09+872.122+1030.15+873.726C1026.43+874.643+1022.22+875.101+1017.52+875.101C1006.06+875.101+996.352+870.933+988.388+862.597C980.425+854.261+976.443+842.588+976.443+827.578C976.443+812.797+980.453+800.794+988.474+791.57C996.495+782.346+1006.98+777.734+1019.93+777.734ZM1044.59+818.468C1043.96+811.765+1042.5+806.409+1040.21+802.398C1035.97+794.95+1028.89+791.226+1018.98+791.226C1011.88+791.226+1005.92+793.79+1001.11+798.918C996.294+804.045+993.745+810.562+993.458+818.468L1044.59+818.468Z" opacity="1" fill="#ffffff"/>
<path d="M972.833+982.197L992.857+982.197L1014+1014.59L1035.4+982.197L1054.22+982.626L1023.19+1027.06L1055.59+1074.24L1035.83+1074.24L1012.97+1039.69L990.794+1074.24L971.201+1074.24L1003.6+1027.06L972.833+982.197Z" opacity="1" fill="#ffffff"/>
<path d="M984.693+1158.9L1000.33+1158.9L1000.33+1184.6L1015.03+1184.6L1015.03+1197.23L1000.33+1197.23L1000.33+1257.3C1000.33+1260.51+1001.42+1262.66+1003.6+1263.74C1004.8+1264.38+1006.81+1264.69+1009.61+1264.69C1010.36+1264.69+1011.16+1264.68+1012.02+1264.65C1012.88+1264.62+1013.88+1264.55+1015.03+1264.43L1015.03+1276.64C1013.25+1277.15+1011.41+1277.52+1009.49+1277.75C1007.57+1277.98+1005.49+1278.1+1003.26+1278.1C996.037+1278.1+991.138+1276.25+988.56+1272.55C985.982+1268.86+984.693+1264.06+984.693+1258.16L984.693+1197.23L972.232+1197.23L972.232+1184.6L984.693+1184.6L984.693+1158.9Z" opacity="1" fill="#ffffff"/>
</g>
<path d="M391.905+1088.53" opacity="1" fill="url(#LinearGradient)"/>
<g opacity="1">
<path d="M223.474+797.516C63.3093+638.167+62.6479+379.15+221.997+218.986C381.345+58.8214+640.362+58.1601+800.526+217.509C960.691+376.857+961.352+635.874+802.003+796.038C642.655+956.203+383.638+956.864+223.474+797.516Z" opacity="1" fill="url(#LinearGradient_2)"/>
<path d="M331.193+274.828L341.342+274.828C352.495+274.828+361.536+283.869+361.536+295.022L361.536+428.686C373.516+413.525+384.278+402.856+393.824+396.679C410.108+386.01+430.417+380.676+454.75+380.676C498.362+380.676+527.935+395.93+543.471+426.44C551.894+443.099+556.105+466.215+556.105+495.789L556.105+668.479C556.105+679.632+547.064+688.673+535.911+688.673L524.358+688.673C513.205+688.673+504.164+679.632+504.164+668.479L504.164+499.158C504.164+477.071+501.356+460.88+495.741+450.586C486.57+434.114+469.349+425.879+444.081+425.879C423.117+425.879+404.119+433.085+387.086+447.497C370.053+461.91+361.536+489.144+361.536+529.199L361.536+668.479C361.536+679.632+352.495+688.673+341.342+688.673L331.193+688.673C320.04+688.673+310.999+679.632+310.999+668.479L310.999+295.022C310.999+283.869+320.04+274.828+331.193+274.828Z" opacity="1" fill="#ffffff"/>
<path d="M718.824+796.485L718.824+796.485L718.824+799.834L718.824+799.834L718.824+796.485Z" opacity="1" fill="#ffffff"/>
</g>
<path d="M708.558+484.069L708.558+585.207C708.558+594.365+699.279+601.79+687.833+601.79L687.833+601.79C676.387+601.79+667.108+594.365+667.108+585.207L667.108+484.069C667.108+474.91+676.387+467.485+687.833+467.485L687.833+467.485C699.279+467.485+708.558+474.91+708.558+484.069Z" opacity="1" fill="#ffffff"/>
<path d="M637.264+513.913L738.402+513.913C747.561+513.913+754.986+523.191+754.986+534.638L754.986+534.638C754.986+546.084+747.561+555.363+738.402+555.363L637.264+555.363C628.106+555.363+620.681+546.084+620.681+534.638L620.681+534.638C620.681+523.192+628.106+513.913+637.264+513.913Z" opacity="1" fill="#ffffff"/>
</g>
</svg>
