<svg xmlns="http://www.w3.org/2000/svg" xmlns:xlink="http://www.w3.org/1999/xlink" width="854.458" height="1122.603" viewBox="0 0 854.458 1122.603">
  <defs>
    <clipPath id="clip-path">
      <rect width="835.244" height="1108.195" fill="none"/>
    </clipPath>
  </defs>
  <g id="Repeat_Grid_2" data-name="Repeat Grid 2" transform="matrix(1, -0.017, 0.017, 1, 0, 14.577)" clip-path="url(#clip-path)" style="mix-blend-mode: color-burn;isolation: isolate">
    <g transform="translate(100.122 -835.903)">
      <g id="Polygon_1" data-name="Polygon 1" transform="matrix(0.695, 0.719, -0.719, 0.695, 66.045, 835.903)" fill="#fff">
        <path d="M 228.194091796875 230.5 L 0.805903434753418 230.5 L 114.4999389648438 1.125884175300598 L 228.194091796875 230.5 Z" stroke="none"/>
        <path d="M 114.4999389648438 2.251708984375 L 1.611770629882812 230 L 227.3882293701172 230 L 114.4999389648438 2.251708984375 M 114.4999389648438 0 L 229 231 L 0 231 L 114.4999389648438 0 Z" stroke="none" fill="#707070"/>
      </g>
    </g>
    <g transform="translate(339.122 -835.903)">
      <g id="Polygon_1-2" data-name="Polygon 1" transform="matrix(0.695, 0.719, -0.719, 0.695, 66.045, 835.903)" fill="#fff">
        <path d="M 228.194091796875 230.5 L 0.805903434753418 230.5 L 114.4999389648438 1.125884175300598 L 228.194091796875 230.5 Z" stroke="none"/>
        <path d="M 114.4999389648438 2.251708984375 L 1.611770629882812 230 L 227.3882293701172 230 L 114.4999389648438 2.251708984375 M 114.4999389648438 0 L 229 231 L 0 231 L 114.4999389648438 0 Z" stroke="none" fill="#707070"/>
      </g>
    </g>
    <g transform="translate(578.122 -835.903)">
      <g id="Polygon_1-3" data-name="Polygon 1" transform="matrix(0.695, 0.719, -0.719, 0.695, 66.045, 835.903)" fill="#fff">
        <path d="M 228.194091796875 230.5 L 0.805903434753418 230.5 L 114.4999389648438 1.125884175300598 L 228.194091796875 230.5 Z" stroke="none"/>
        <path d="M 114.4999389648438 2.251708984375 L 1.611770629882812 230 L 227.3882293701172 230 L 114.4999389648438 2.251708984375 M 114.4999389648438 0 L 229 231 L 0 231 L 114.4999389648438 0 Z" stroke="none" fill="#707070"/>
      </g>
    </g>
    <g transform="translate(817.122 -835.903)">
      <g id="Polygon_1-4" data-name="Polygon 1" transform="matrix(0.695, 0.719, -0.719, 0.695, 66.045, 835.903)" fill="#fff">
        <path d="M 228.194091796875 230.5 L 0.805903434753418 230.5 L 114.4999389648438 1.125884175300598 L 228.194091796875 230.5 Z" stroke="none"/>
        <path d="M 114.4999389648438 2.251708984375 L 1.611770629882812 230 L 227.3882293701172 230 L 114.4999389648438 2.251708984375 M 114.4999389648438 0 L 229 231 L 0 231 L 114.4999389648438 0 Z" stroke="none" fill="#707070"/>
      </g>
    </g>
    <g transform="translate(100.122 -593.903)">
      <g id="Polygon_1-5" data-name="Polygon 1" transform="matrix(0.695, 0.719, -0.719, 0.695, 66.045, 835.903)" fill="#fff">
        <path d="M 228.194091796875 230.5 L 0.805903434753418 230.5 L 114.4999389648438 1.125884175300598 L 228.194091796875 230.5 Z" stroke="none"/>
        <path d="M 114.4999389648438 2.251708984375 L 1.611770629882812 230 L 227.3882293701172 230 L 114.4999389648438 2.251708984375 M 114.4999389648438 0 L 229 231 L 0 231 L 114.4999389648438 0 Z" stroke="none" fill="#707070"/>
      </g>
    </g>
    <g transform="translate(339.122 -593.903)">
      <g id="Polygon_1-6" data-name="Polygon 1" transform="matrix(0.695, 0.719, -0.719, 0.695, 66.045, 835.903)" fill="#fff">
        <path d="M 228.194091796875 230.5 L 0.805903434753418 230.5 L 114.4999389648438 1.125884175300598 L 228.194091796875 230.5 Z" stroke="none"/>
        <path d="M 114.4999389648438 2.251708984375 L 1.611770629882812 230 L 227.3882293701172 230 L 114.4999389648438 2.251708984375 M 114.4999389648438 0 L 229 231 L 0 231 L 114.4999389648438 0 Z" stroke="none" fill="#707070"/>
      </g>
    </g>
    <g transform="translate(578.122 -593.903)">
      <g id="Polygon_1-7" data-name="Polygon 1" transform="matrix(0.695, 0.719, -0.719, 0.695, 66.045, 835.903)" fill="#fff">
        <path d="M 228.194091796875 230.5 L 0.805903434753418 230.5 L 114.4999389648438 1.125884175300598 L 228.194091796875 230.5 Z" stroke="none"/>
        <path d="M 114.4999389648438 2.251708984375 L 1.611770629882812 230 L 227.3882293701172 230 L 114.4999389648438 2.251708984375 M 114.4999389648438 0 L 229 231 L 0 231 L 114.4999389648438 0 Z" stroke="none" fill="#707070"/>
      </g>
    </g>
    <g transform="translate(817.122 -593.903)">
      <g id="Polygon_1-8" data-name="Polygon 1" transform="matrix(0.695, 0.719, -0.719, 0.695, 66.045, 835.903)" fill="#fff">
        <path d="M 228.194091796875 230.5 L 0.805903434753418 230.5 L 114.4999389648438 1.125884175300598 L 228.194091796875 230.5 Z" stroke="none"/>
        <path d="M 114.4999389648438 2.251708984375 L 1.611770629882812 230 L 227.3882293701172 230 L 114.4999389648438 2.251708984375 M 114.4999389648438 0 L 229 231 L 0 231 L 114.4999389648438 0 Z" stroke="none" fill="#707070"/>
      </g>
    </g>
    <g transform="translate(100.122 -351.903)">
      <g id="Polygon_1-9" data-name="Polygon 1" transform="matrix(0.695, 0.719, -0.719, 0.695, 66.045, 835.903)" fill="#fff">
        <path d="M 228.194091796875 230.5 L 0.805903434753418 230.5 L 114.4999389648438 1.125884175300598 L 228.194091796875 230.5 Z" stroke="none"/>
        <path d="M 114.4999389648438 2.251708984375 L 1.611770629882812 230 L 227.3882293701172 230 L 114.4999389648438 2.251708984375 M 114.4999389648438 0 L 229 231 L 0 231 L 114.4999389648438 0 Z" stroke="none" fill="#707070"/>
      </g>
    </g>
    <g transform="translate(339.122 -351.903)">
      <g id="Polygon_1-10" data-name="Polygon 1" transform="matrix(0.695, 0.719, -0.719, 0.695, 66.045, 835.903)" fill="#fff">
        <path d="M 228.194091796875 230.5 L 0.805903434753418 230.5 L 114.4999389648438 1.125884175300598 L 228.194091796875 230.5 Z" stroke="none"/>
        <path d="M 114.4999389648438 2.251708984375 L 1.611770629882812 230 L 227.3882293701172 230 L 114.4999389648438 2.251708984375 M 114.4999389648438 0 L 229 231 L 0 231 L 114.4999389648438 0 Z" stroke="none" fill="#707070"/>
      </g>
    </g>
    <g transform="translate(578.122 -351.903)">
      <g id="Polygon_1-11" data-name="Polygon 1" transform="matrix(0.695, 0.719, -0.719, 0.695, 66.045, 835.903)" fill="#fff">
        <path d="M 228.194091796875 230.5 L 0.805903434753418 230.5 L 114.4999389648438 1.125884175300598 L 228.194091796875 230.5 Z" stroke="none"/>
        <path d="M 114.4999389648438 2.251708984375 L 1.611770629882812 230 L 227.3882293701172 230 L 114.4999389648438 2.251708984375 M 114.4999389648438 0 L 229 231 L 0 231 L 114.4999389648438 0 Z" stroke="none" fill="#707070"/>
      </g>
    </g>
    <g transform="translate(817.122 -351.903)">
      <g id="Polygon_1-12" data-name="Polygon 1" transform="matrix(0.695, 0.719, -0.719, 0.695, 66.045, 835.903)" fill="#fff">
        <path d="M 228.194091796875 230.5 L 0.805903434753418 230.5 L 114.4999389648438 1.125884175300598 L 228.194091796875 230.5 Z" stroke="none"/>
        <path d="M 114.4999389648438 2.251708984375 L 1.611770629882812 230 L 227.3882293701172 230 L 114.4999389648438 2.251708984375 M 114.4999389648438 0 L 229 231 L 0 231 L 114.4999389648438 0 Z" stroke="none" fill="#707070"/>
      </g>
    </g>
    <g transform="translate(100.122 -109.903)">
      <g id="Polygon_1-13" data-name="Polygon 1" transform="matrix(0.695, 0.719, -0.719, 0.695, 66.045, 835.903)" fill="#fff">
        <path d="M 228.194091796875 230.5 L 0.805903434753418 230.5 L 114.4999389648438 1.125884175300598 L 228.194091796875 230.5 Z" stroke="none"/>
        <path d="M 114.4999389648438 2.251708984375 L 1.611770629882812 230 L 227.3882293701172 230 L 114.4999389648438 2.251708984375 M 114.4999389648438 0 L 229 231 L 0 231 L 114.4999389648438 0 Z" stroke="none" fill="#707070"/>
      </g>
    </g>
    <g transform="translate(339.122 -109.903)">
      <g id="Polygon_1-14" data-name="Polygon 1" transform="matrix(0.695, 0.719, -0.719, 0.695, 66.045, 835.903)" fill="#fff">
        <path d="M 228.194091796875 230.5 L 0.805903434753418 230.5 L 114.4999389648438 1.125884175300598 L 228.194091796875 230.5 Z" stroke="none"/>
        <path d="M 114.4999389648438 2.251708984375 L 1.611770629882812 230 L 227.3882293701172 230 L 114.4999389648438 2.251708984375 M 114.4999389648438 0 L 229 231 L 0 231 L 114.4999389648438 0 Z" stroke="none" fill="#707070"/>
      </g>
    </g>
    <g transform="translate(578.122 -109.903)">
      <g id="Polygon_1-15" data-name="Polygon 1" transform="matrix(0.695, 0.719, -0.719, 0.695, 66.045, 835.903)" fill="#fff">
        <path d="M 228.194091796875 230.5 L 0.805903434753418 230.5 L 114.4999389648438 1.125884175300598 L 228.194091796875 230.5 Z" stroke="none"/>
        <path d="M 114.4999389648438 2.251708984375 L 1.611770629882812 230 L 227.3882293701172 230 L 114.4999389648438 2.251708984375 M 114.4999389648438 0 L 229 231 L 0 231 L 114.4999389648438 0 Z" stroke="none" fill="#707070"/>
      </g>
    </g>
    <g transform="translate(817.122 -109.903)">
      <g id="Polygon_1-16" data-name="Polygon 1" transform="matrix(0.695, 0.719, -0.719, 0.695, 66.045, 835.903)" fill="#fff">
        <path d="M 228.194091796875 230.5 L 0.805903434753418 230.5 L 114.4999389648438 1.125884175300598 L 228.194091796875 230.5 Z" stroke="none"/>
        <path d="M 114.4999389648438 2.251708984375 L 1.611770629882812 230 L 227.3882293701172 230 L 114.4999389648438 2.251708984375 M 114.4999389648438 0 L 229 231 L 0 231 L 114.4999389648438 0 Z" stroke="none" fill="#707070"/>
      </g>
    </g>
    <g transform="translate(100.122 132.097)">
      <g id="Polygon_1-17" data-name="Polygon 1" transform="matrix(0.695, 0.719, -0.719, 0.695, 66.045, 835.903)" fill="#fff">
        <path d="M 228.194091796875 230.5 L 0.805903434753418 230.5 L 114.4999389648438 1.125884175300598 L 228.194091796875 230.5 Z" stroke="none"/>
        <path d="M 114.4999389648438 2.251708984375 L 1.611770629882812 230 L 227.3882293701172 230 L 114.4999389648438 2.251708984375 M 114.4999389648438 0 L 229 231 L 0 231 L 114.4999389648438 0 Z" stroke="none" fill="#707070"/>
      </g>
    </g>
    <g transform="translate(339.122 132.097)">
      <g id="Polygon_1-18" data-name="Polygon 1" transform="matrix(0.695, 0.719, -0.719, 0.695, 66.045, 835.903)" fill="#fff">
        <path d="M 228.194091796875 230.5 L 0.805903434753418 230.5 L 114.4999389648438 1.125884175300598 L 228.194091796875 230.5 Z" stroke="none"/>
        <path d="M 114.4999389648438 2.251708984375 L 1.611770629882812 230 L 227.3882293701172 230 L 114.4999389648438 2.251708984375 M 114.4999389648438 0 L 229 231 L 0 231 L 114.4999389648438 0 Z" stroke="none" fill="#707070"/>
      </g>
    </g>
    <g transform="translate(578.122 132.097)">
      <g id="Polygon_1-19" data-name="Polygon 1" transform="matrix(0.695, 0.719, -0.719, 0.695, 66.045, 835.903)" fill="#fff">
        <path d="M 228.194091796875 230.5 L 0.805903434753418 230.5 L 114.4999389648438 1.125884175300598 L 228.194091796875 230.5 Z" stroke="none"/>
        <path d="M 114.4999389648438 2.251708984375 L 1.611770629882812 230 L 227.3882293701172 230 L 114.4999389648438 2.251708984375 M 114.4999389648438 0 L 229 231 L 0 231 L 114.4999389648438 0 Z" stroke="none" fill="#707070"/>
      </g>
    </g>
    <g transform="translate(817.122 132.097)">
      <g id="Polygon_1-20" data-name="Polygon 1" transform="matrix(0.695, 0.719, -0.719, 0.695, 66.045, 835.903)" fill="#fff">
        <path d="M 228.194091796875 230.5 L 0.805903434753418 230.5 L 114.4999389648438 1.125884175300598 L 228.194091796875 230.5 Z" stroke="none"/>
        <path d="M 114.4999389648438 2.251708984375 L 1.611770629882812 230 L 227.3882293701172 230 L 114.4999389648438 2.251708984375 M 114.4999389648438 0 L 229 231 L 0 231 L 114.4999389648438 0 Z" stroke="none" fill="#707070"/>
      </g>
    </g>
  </g>
</svg>
