<svg xmlns="http://www.w3.org/2000/svg" xmlns:xlink="http://www.w3.org/1999/xlink" width="639.642" height="557.124" viewBox="0 0 639.642 557.124">
  <defs>
    <linearGradient id="linear-gradient" x1="0.5" x2="0.5" y2="1" gradientUnits="objectBoundingBox">
      <stop offset="0" stop-color="#f86e6e"/>
      <stop offset="1" stop-color="#fabfbf"/>
    </linearGradient>
    <filter id="Ellipse_2" x="7.642" y="446.549" width="612" height="78" filterUnits="userSpaceOnUse">
      <feOffset dy="10" input="SourceAlpha"/>
      <feGaussianBlur stdDeviation="3" result="blur"/>
      <feFlood flood-color="#d62525" flood-opacity="0.051"/>
      <feComposite operator="in" in2="blur"/>
      <feComposite in="SourceGraphic"/>
    </filter>
    <filter id="Rectangle_1" x="137.642" y="50.549" width="311" height="424" filterUnits="userSpaceOnUse">
      <feOffset dx="3" dy="3" input="SourceAlpha"/>
      <feGaussianBlur stdDeviation="3" result="blur-2"/>
      <feFlood flood-opacity="0.161"/>
      <feComposite operator="in" in2="blur-2"/>
      <feComposite in="SourceGraphic"/>
    </filter>
    <filter id="Rectangle_2" x="299.642" y="180.549" width="311" height="301" filterUnits="userSpaceOnUse">
      <feOffset dx="3" dy="-3" input="SourceAlpha"/>
      <feGaussianBlur stdDeviation="3" result="blur-3"/>
      <feFlood flood-opacity="0.161"/>
      <feComposite operator="in" in2="blur-3"/>
      <feComposite in="SourceGraphic"/>
    </filter>
    <filter id="Rectangle_3" x="52.642" y="321.549" width="311" height="160" filterUnits="userSpaceOnUse">
      <feOffset dx="3" dy="-3" input="SourceAlpha"/>
      <feGaussianBlur stdDeviation="3" result="blur-4"/>
      <feFlood flood-opacity="0.161"/>
      <feComposite operator="in" in2="blur-4"/>
      <feComposite in="SourceGraphic"/>
    </filter>
  </defs>
  <g id="Group_8" data-name="Group 8" transform="translate(-1169.358 -323.451)">
    <path id="Path_20" data-name="Path 20" d="M243.512-50.163c145.552,0,304.13,130.136,304.13,272.345s-149.456,284.78-295.007,284.78S-92,502.072-92,359.864,97.961-50.163,243.512-50.163Z" transform="translate(1261.358 373.615)" fill="url(#linear-gradient)"/>
    <g transform="matrix(1, 0, 0, 1, 1169.36, 323.45)" filter="url(#Ellipse_2)">
      <ellipse id="Ellipse_2-2" data-name="Ellipse 2" cx="297" cy="29.5" rx="297" ry="29.5" transform="translate(16.64 446.55)" fill="rgba(175,154,154,0.34)"/>
    </g>
    <g id="Group_2" data-name="Group 2" transform="translate(538 49)">
      <g transform="matrix(1, 0, 0, 1, 631.36, 274.45)" filter="url(#Rectangle_1)">
        <rect id="Rectangle_1-2" data-name="Rectangle 1" width="293" height="406" transform="translate(143.64 56.55)" fill="#c6c6c6"/>
      </g>
      <g transform="matrix(1, 0, 0, 1, 631.36, 274.45)" filter="url(#Rectangle_2)">
        <rect id="Rectangle_2-2" data-name="Rectangle 2" width="293" height="283" transform="translate(305.64 192.55)" fill="#dbdbdb"/>
      </g>
      <g transform="matrix(1, 0, 0, 1, 631.36, 274.45)" filter="url(#Rectangle_3)">
        <rect id="Rectangle_3-2" data-name="Rectangle 3" width="293" height="142" transform="translate(58.64 333.55)" fill="#ebebeb"/>
      </g>
      <g id="Group_1" data-name="Group 1" transform="translate(453 94)">
        <rect id="Rectangle_4" data-name="Rectangle 4" width="23" height="64" transform="translate(383 283)" fill="#ff3838"/>
        <rect id="Rectangle_5" data-name="Rectangle 5" width="23.258" height="64.685" transform="translate(426.185 303.714) rotate(90)" fill="#ff3838"/>
      </g>
      <rect id="Rectangle_6" data-name="Rectangle 6" width="67" height="57" transform="translate(1001 517)" fill="#fff"/>
      <rect id="Rectangle_8" data-name="Rectangle 8" width="67" height="57" transform="translate(1001 593)" fill="#fff"/>
      <rect id="Rectangle_11" data-name="Rectangle 11" width="67" height="57" transform="translate(1001 669)" fill="#fff"/>
      <rect id="Rectangle_12" data-name="Rectangle 12" width="67" height="57" transform="translate(1108 519)" fill="#fff"/>
      <rect id="Rectangle_13" data-name="Rectangle 13" width="67" height="57" transform="translate(1108 593)" fill="#fff"/>
      <rect id="Rectangle_14" data-name="Rectangle 14" width="67" height="57" transform="translate(1108 667)" fill="#fff"/>
      <rect id="Rectangle_15" data-name="Rectangle 15" width="218" height="45" transform="translate(727 634)" fill="#fff"/>
      <rect id="Rectangle_16" data-name="Rectangle 16" width="120" height="45" transform="translate(727 692)" fill="#fff"/>
    </g>
  </g>
</svg>
